<?xml version="1.0" encoding="UTF-8" standalone="no"?>
<svg width="41px" height="50px" viewBox="0 0 41 50" version="1.1" xmlns="http://www.w3.org/2000/svg" xmlns:xlink="http://www.w3.org/1999/xlink">
    <!-- Generator: Sketch 3.8.3 (29802) - http://www.bohemiancoding.com/sketch -->
    <title>ic_plan</title>
    <desc>Created with Sketch.</desc>
    <defs></defs>
    <g id="design" stroke="none" stroke-width="1" fill="none" fill-rule="evenodd">
        <g id="Final_yi-career-design-Copy" transform="translate(-45.000000, -2903.000000)" fill="#323232">
            <g id="Benefits" transform="translate(0.000000, 2707.000000)">
                <path d="M77.147411,232.353728 C77.2532185,228.371303 85.1708141,223.311826 85.1248976,212.258967 C85.1039358,206.701934 79.6538511,197.461602 70.3986889,196.312484 C61.1405322,195.15843 54.2141334,197.173336 51.1886376,202.817243 C48.1551564,208.463126 47.9255741,213.414009 48.158151,214.33508 C48.3937224,215.256152 49.3799282,216.984765 49.3799282,216.984765 C49.3799282,216.984765 44.724398,224.065071 45.0128732,225.216164 C45.3063393,226.366269 48.5015263,226.990189 48.5015263,226.990189 C48.5015263,226.990189 48.792996,227.788846 48.2080602,229.340748 C47.6231244,230.898573 49.2950826,232.702215 49.7931764,233.332058 C50.290272,233.960914 49.0924512,235.921523 49.4997103,237.015357 C49.9069694,238.108204 51.8344627,239.430084 54.0424457,239.142805 C56.2564179,238.852564 59.094255,238.340199 60.0844535,238.166449 C62.3114021,243.346366 56.9401739,246 56.9401739,246 L85.1718123,246 C85.1688177,246.000987 76.9787179,239.489317 77.147411,232.353728 Z M75.9416047,225.747285 C75.5183747,226.186596 74.9973227,226.539032 74.4173778,226.778925 L74.6449637,227.8619 L72.9290854,228.215323 L72.6985049,227.136297 C72.064658,227.146169 71.4487785,227.027703 70.8848045,226.795707 L70.2719196,227.718753 L68.8065854,226.768065 L69.4154777,225.847981 C68.9782731,225.428415 68.619925,224.917037 68.3733736,224.337542 L67.2783657,224.563614 L66.9160249,222.865605 L68.0130291,222.639533 C68.0050437,222.010677 68.1218312,221.396629 68.3564044,220.844776 L67.4201078,220.241587 L68.381359,218.788407 L69.3096702,219.390608 C69.7408857,218.958208 70.257945,218.604785 70.8458754,218.36193 L70.6192876,217.277968 L72.3321714,216.923558 L72.5617537,218.009494 C73.1965987,217.997648 73.8104819,218.116114 74.3734577,218.34416 L74.9863426,217.424076 L76.4556695,218.372789 L75.8437827,219.295835 C76.2829837,219.716389 76.637339,220.226779 76.8848886,220.805287 L77.9729092,220.580202 L78.3392427,222.278212 L77.2442349,222.50231 C77.2552149,223.13314 77.136431,223.744226 76.9038541,224.30299 L77.8351598,224.906178 L76.8729104,226.356397 L75.9416047,225.747285 Z M64.8078603,213.93822 L63.3315461,214.851394 L61.8871739,212.565004 L63.3604935,211.65183 C63.0031436,210.739643 62.8474269,209.787968 62.8823633,208.850114 L61.1944342,208.460164 L61.8023282,205.838121 L63.4972447,206.220173 C63.8845401,205.363271 64.4505104,204.56955 65.1711993,203.908116 L64.2508736,202.447038 L66.558675,201.017551 L67.4790007,202.477641 C68.4043173,202.12718 69.3655685,201.970213 70.3198324,202.00674 L70.7091242,200.333411 L73.36629,200.942522 L72.9750019,202.610915 C73.8424238,202.996917 74.6379764,203.553706 75.313747,204.266475 L76.7830739,203.355276 L78.2284443,205.640678 L76.7561229,206.551878 C77.1124746,207.463077 77.2671931,208.416727 77.2312585,209.35853 L78.9241786,209.749467 L78.308299,212.37151 L76.621368,211.989458 C76.236069,212.850309 75.6691005,213.641068 74.9474135,214.302502 L75.8647446,215.760619 L73.550954,217.191093 L72.6336229,215.731989 C71.7103027,216.081464 70.746057,216.241392 69.7987803,216.200917 L69.4074922,217.872271 L66.7523227,217.26316 L67.1406163,215.596741 C66.2751908,215.211727 65.4756454,214.654938 64.8078603,213.93822 Z M72.628632,225.685091 C74.3673748,225.685091 75.7769044,224.29105 75.7769044,222.571415 C75.7769044,220.851779 74.3673748,219.457739 72.628632,219.457739 C70.8898892,219.457739 69.4803596,220.851779 69.4803596,222.571415 C69.4803596,224.29105 70.8898892,225.685091 72.628632,225.685091 Z M70.0613027,213.941182 C72.7631349,213.941182 74.9534026,211.774983 74.9534026,209.102841 C74.9534026,206.430699 72.7631349,204.264501 70.0613027,204.264501 C67.3594706,204.264501 65.1692029,206.430699 65.1692029,209.102841 C65.1692029,211.774983 67.3594706,213.941182 70.0613027,213.941182 Z" id="ic_plan"></path>
            </g>
        </g>
    </g>
</svg>