<?xml version="1.0" encoding="UTF-8" standalone="no"?>
<svg width="48px" height="46px" viewBox="0 0 48 46" version="1.1" xmlns="http://www.w3.org/2000/svg" xmlns:xlink="http://www.w3.org/1999/xlink">
    <!-- Generator: Sketch 3.8.3 (29802) - http://www.bohemiancoding.com/sketch -->
    <title>ic_calendar</title>
    <desc>Created with Sketch.</desc>
    <defs></defs>
    <g id="design" stroke="none" stroke-width="1" fill="none" fill-rule="evenodd">
        <g id="Final_yi-career-design-Copy" transform="translate(-42.000000, -3067.000000)" fill="#323232">
            <g id="Benefits" transform="translate(0.000000, 2707.000000)">
                <path d="M78.6495327,363.869159 L78.6495327,368.598131 L75.1028037,368.598131 L75.1028037,363.869159 L55.9719626,363.869159 L55.9719626,368.598131 L52.4252336,368.598131 L52.4252336,363.869159 L42,363.869159 L42,406 L89.021028,406 L89.021028,363.869159 L78.6495327,363.869159 Z M83.6471963,400.464953 L48.1799065,400.464953 L48.1799065,374.025701 L83.6471963,374.025701 L83.6471963,400.464953 Z M52.4252336,360 L55.9719626,360 L55.9719626,363.869159 L52.4252336,363.869159 L52.4252336,360 Z M75.1028037,360 L78.6495327,360 L78.6495327,363.869159 L75.1028037,363.869159 L75.1028037,360 Z M66.3434579,384.988318 C68.0093458,384.988318 69.3528037,385.471963 70.3200935,386.385514 C71.2873832,387.299065 71.8247664,388.588785 71.8247664,390.254673 C71.8247664,392.189252 71.2336449,393.693925 70.0514019,394.714953 C68.8691589,395.735981 67.1495327,396.273364 64.9462617,396.273364 C63.0116822,396.273364 61.453271,395.950935 60.271028,395.359813 L60.271028,392.189252 C60.9158879,392.511682 61.614486,392.780374 62.4742991,392.995327 C63.2803738,393.21028 64.0864486,393.317757 64.838785,393.317757 C67.0957944,393.317757 68.1705607,392.404206 68.1705607,390.577103 C68.1705607,388.803738 66.9883178,387.943925 64.6775701,387.943925 C64.2476636,387.943925 63.817757,387.997664 63.2803738,388.051402 C62.796729,388.158879 62.3668224,388.212617 62.0443925,388.320093 L60.5934579,387.514019 L61.2383178,378.754673 L70.6425234,378.754673 L70.6425234,381.871495 L64.4626168,381.871495 L64.1401869,385.257009 L64.5700935,385.149533 C65.0537383,385.042056 65.6448598,384.988318 66.3434579,384.988318 Z" id="ic_calendar"></path>
            </g>
        </g>
    </g>
</svg>