<?xml version="1.0" encoding="UTF-8" standalone="no"?>
<svg width="57px" height="50px" viewBox="0 0 57 50" version="1.1" xmlns="http://www.w3.org/2000/svg" xmlns:xlink="http://www.w3.org/1999/xlink">
    <!-- Generator: Sketch 3.8.3 (29802) - http://www.bohemiancoding.com/sketch -->
    <title>ic_benefit</title>
    <desc>Created with Sketch.</desc>
    <defs></defs>
    <g id="design" stroke="none" stroke-width="1" fill="none" fill-rule="evenodd">
        <g id="Final_yi-career-design-Copy" transform="translate(-538.000000, -2903.000000)" fill="#323232">
            <g id="Benefits" transform="translate(0.000000, 2707.000000)">
                <path d="M561.917496,245.983696 C561.272924,245.983696 560.804144,245.456319 560.804144,244.870344 L560.804144,242.702238 L560.862742,233.092252 L560.862742,230.924146 C560.862742,230.279573 561.390119,229.810794 561.976094,229.810794 L567.249866,229.810794 C567.894438,229.810794 568.363218,230.338171 568.363218,230.924146 L568.363218,233.092252 L568.304621,242.702238 L568.304621,244.870344 C568.304621,245.514917 567.777244,245.983696 567.191269,245.983696 L561.917496,245.983696 L561.917496,245.983696 Z M578.969361,244.870344 L578.969361,236.373711 L578.969361,233.033655 L578.969361,224.537021 C578.969361,223.892449 578.441984,223.423669 577.856009,223.423669 L572.582236,223.423669 C571.937664,223.423669 571.468884,223.951046 571.468884,224.537021 L571.468884,233.033655 L571.468884,236.373711 L571.468884,244.870344 C571.468884,245.514917 571.996262,245.983696 572.582236,245.983696 L577.856009,245.983696 C578.441984,246.042294 578.969361,245.514917 578.969361,244.870344 L578.969361,244.870344 Z M585.239291,204.320892 L577.797412,216.157582 C577.445827,216.743557 577.856009,217.446726 578.500581,217.446726 L582.133625,217.446726 L582.075027,244.870344 C582.075027,245.514917 582.602405,245.983696 583.188379,245.983696 L588.462152,245.983696 C589.048127,245.983696 589.575504,245.514917 589.575504,244.928942 L589.575504,244.928942 L589.634102,226.88092 L589.634102,226.353543 L589.634102,217.505324 L593.267145,217.505324 C593.911717,217.505324 594.321899,216.743557 593.970315,216.216179 L586.704228,204.320892 C586.352643,203.793515 585.532278,203.793515 585.239291,204.320892 L585.239291,204.320892 Z M550.725378,205.551439 L550.725378,205.551439 L550.725378,205.551439 C555.061592,205.492842 554.417019,199.808887 554.417019,199.808887 C554.241227,196.000051 551.018366,196.000051 550.725378,196.000051 C550.432391,196.000051 547.20953,195.941453 547.033738,199.808887 C547.033738,199.750289 546.389165,205.492842 550.725378,205.551439 L550.725378,205.551439 C550.666781,205.551439 550.725378,205.551439 550.725378,205.551439 L550.725378,205.551439 Z M538.947286,218.618676 C537.833934,217.622519 537.658142,215.923192 538.654299,214.751243 L544.162461,208.7743 C544.338254,208.598508 544.514046,208.422715 544.689839,208.30552 C546.213373,207.250766 547.971297,206.547596 547.971297,206.547596 L549.436234,211.235394 L550.315196,208.7743 C548.733064,206.606194 550.490989,206.547596 550.725378,206.547596 L550.725378,206.547596 C550.959768,206.547596 552.717693,206.606194 551.135561,208.7743 L552.014523,211.235394 L553.47946,206.547596 C553.47946,206.547596 555.178786,207.250766 556.760918,208.30552 C556.936711,208.422715 557.112503,208.598508 557.288296,208.7743 L562.796458,214.751243 C563.792615,215.923192 563.616823,217.622519 562.503471,218.618676 L555.881956,224.302631 L556.936711,244.460162 C556.995308,245.221929 556.467931,245.866502 555.706164,245.983696 C554.944397,246.100891 554.182629,245.573514 554.065434,244.811747 L551.194158,229.517806 C551.135561,229.283416 550.901171,229.107624 550.666781,229.107624 C550.432391,229.107624 550.198001,229.283416 550.139404,229.517806 L547.326725,244.811747 C547.20953,245.573514 546.447763,246.100891 545.685996,245.983696 C544.982826,245.866502 544.455449,245.221929 544.455449,244.460162 L545.568801,224.302631 L538.947286,218.618676 L538.947286,218.618676 Z M555.823359,220.259405 L559.163415,216.860752 L556.409333,214.34106 L555.823359,220.259405 L555.823359,220.259405 Z M542.228745,216.860752 L545.568801,220.259405 L544.982826,214.34106 L542.228745,216.860752 L542.228745,216.860752 Z" id="ic_benefit"></path>
            </g>
        </g>
    </g>
</svg>