<?xml version="1.0" encoding="UTF-8" standalone="no"?>
<svg width="51px" height="50px" viewBox="0 0 51 50" version="1.1" xmlns="http://www.w3.org/2000/svg" xmlns:xlink="http://www.w3.org/1999/xlink">
    <!-- Generator: Sketch 3.8.3 (29802) - http://www.bohemiancoding.com/sketch -->
    <title>ic_learning</title>
    <desc>Created with Sketch.</desc>
    <defs></defs>
    <g id="design" stroke="none" stroke-width="1" fill="none" fill-rule="evenodd">
        <g id="Final_yi-career-design-Copy" transform="translate(-544.000000, -3067.000000)" fill="#323232">
            <g id="Benefits" transform="translate(0.000000, 2707.000000)">
                <path d="M550.766764,360 C547.044976,360 544,363.044976 544,366.766764 L544,395.209147 C544,397.744141 545.414659,399.963108 547.491211,401.121419 C547.491211,401.121419 548.544005,401.975911 550.766764,401.975911 C552.989524,401.975912 565.426053,401.975911 565.426053,401.975911 L565.426053,407.086589 L553.766981,407.086589 L553.766981,410 L585.007487,410 L585.007487,407.086589 L573.349772,407.086589 L573.349772,401.975911 L587.485514,401.975911 C591.207303,401.975911 594.252279,398.930935 594.252279,395.209147 L594.252279,366.766764 C594.252279,363.044976 591.207303,360 587.485514,360 L550.766764,360 Z M587.485514,399.268663 C587.485514,399.268663 555.178143,399.268665 552.399794,399.268663 C549.621444,399.268662 548.968262,398.827854 548.968262,398.827854 C547.634983,398.161892 546.708605,396.796061 546.708605,395.207791 L546.708605,366.766764 C546.708605,364.527452 548.530165,362.705892 550.769477,362.705892 L587.485514,362.705892 C589.72347,362.705892 591.54503,364.527452 591.54503,366.766764 L591.54503,395.209147 C591.54503,397.447103 589.72347,399.268663 587.485514,399.268663 Z M561.575412,387.575684 L550.115723,381.960449 L550.115723,380.126682 L561.575412,373.766819 L561.575412,376.844347 L553.681532,380.909288 L561.575412,384.511719 L561.575412,387.575684 Z M573.654948,371.433919 L567.36697,390.178494 L564.171441,390.178494 L570.459418,371.433919 L573.654948,371.433919 Z M576.676866,384.511719 L584.570747,380.909288 L576.676866,376.844347 L576.676866,373.766819 L588.136556,380.126682 L588.136556,381.960449 L576.676866,387.575684 L576.676866,384.511719 L576.676866,384.511719 Z" id="ic_learning"></path>
            </g>
        </g>
    </g>
</svg>