<?xml version="1.0" encoding="UTF-8" standalone="no"?>
<svg width="236px" height="323px" viewBox="0 0 236 323" version="1.1" xmlns="http://www.w3.org/2000/svg" xmlns:xlink="http://www.w3.org/1999/xlink">
    <!-- Generator: Sketch 3.8.3 (29802) - http://www.bohemiancoding.com/sketch -->
    <title>Group 10</title>
    <desc>Created with Sketch.</desc>
    <defs>
        <filter x="-50%" y="-50%" width="200%" height="200%" filterUnits="objectBoundingBox" id="filter-1">
            <feOffset dx="-6" dy="-6" in="SourceAlpha" result="shadowOffsetOuter1"></feOffset>
            <feColorMatrix values="0 0 0 0 0   0 0 0 0 0   0 0 0 0 0  0 0 0 0.100000001 0" type="matrix" in="shadowOffsetOuter1" result="shadowMatrixOuter1"></feColorMatrix>
            <feMerge>
                <feMergeNode in="shadowMatrixOuter1"></feMergeNode>
                <feMergeNode in="SourceGraphic"></feMergeNode>
            </feMerge>
        </filter>
        <filter x="-50%" y="-50%" width="200%" height="200%" filterUnits="objectBoundingBox" id="filter-2">
            <feOffset dx="-6" dy="-6" in="SourceAlpha" result="shadowOffsetOuter1"></feOffset>
            <feColorMatrix values="0 0 0 0 0   0 0 0 0 0   0 0 0 0 0  0 0 0 0.100000001 0" type="matrix" in="shadowOffsetOuter1" result="shadowMatrixOuter1"></feColorMatrix>
            <feMerge>
                <feMergeNode in="shadowMatrixOuter1"></feMergeNode>
                <feMergeNode in="SourceGraphic"></feMergeNode>
            </feMerge>
        </filter>
        <filter x="-50%" y="-50%" width="200%" height="200%" filterUnits="objectBoundingBox" id="filter-3">
            <feOffset dx="-6" dy="-6" in="SourceAlpha" result="shadowOffsetOuter1"></feOffset>
            <feColorMatrix values="0 0 0 0 0   0 0 0 0 0   0 0 0 0 0  0 0 0 0.05 0" type="matrix" in="shadowOffsetOuter1" result="shadowMatrixOuter1"></feColorMatrix>
            <feMerge>
                <feMergeNode in="shadowMatrixOuter1"></feMergeNode>
                <feMergeNode in="SourceGraphic"></feMergeNode>
            </feMerge>
        </filter>
        <rect id="path-4" x="7.44444444" y="5.22807018" width="109.555556" height="133.964912"></rect>
        <mask id="mask-5" maskContentUnits="userSpaceOnUse" maskUnits="objectBoundingBox" x="0" y="0" width="109.555556" height="133.964912" fill="white">
            <use xlink:href="#path-4"></use>
        </mask>
    </defs>
    <g id="design" stroke="none" stroke-width="1" fill="none" fill-rule="evenodd">
        <g id="Final_yi-career-design" transform="translate(-30.000000, -435.000000)">
            <g id="Group-6" transform="translate(36.000000, 418.000000)">
                <g id="Group-10" transform="translate(0.000000, 23.000000)">
                    <g id="Coffee" filter="url(#filter-1)" transform="translate(124.477111, 112.000000)">
                        <circle id="Oval-3" fill="#E2EBE8" cx="52.5" cy="52.5" r="52.5"></circle>
                        <circle id="Oval-1" fill="#FFFFFF" cx="52.5" cy="50.720339" r="32.0338983"></circle>
                        <ellipse id="Oval-1" fill="#180B0A" cx="52.5" cy="50.720339" rx="29.3644068" ry="29.3644068"></ellipse>
                        <ellipse id="Oval-1" fill="#FFFFFF" opacity="0.1" cx="54.7245763" cy="59.1737288" rx="22.690678" ry="22.690678"></ellipse>
                        <ellipse id="Oval-1" fill="#FFFFFF" opacity="0.1" cx="60.9830508" cy="65.4322034" rx="16.4322034" ry="16.4322034"></ellipse>
                        <path d="M66.8772345,82.0466393 C69.5017065,80.3060893 71.3559322,76.0474733 71.3559322,71.0700194 C71.3559322,64.5443432 68.1688067,59.2542373 64.2372881,59.2542373 C60.3057696,59.2542373 57.1186441,64.5443432 57.1186441,71.0700194 C57.1186441,76.0474733 58.9728698,80.3060893 61.5973417,82.0466393 L59.6867166,126.762316 C59.5787917,129.288156 61.5415912,131.330508 64.0704755,131.330508 L64.4041008,131.330508 C66.9235312,131.330508 68.8956608,129.285259 68.7878597,126.762316 L66.8772345,82.0466393 Z" id="Combined-Shape" fill="#CCD4D6" transform="translate(64.237288, 95.292373) rotate(45.000000) translate(-64.237288, -95.292373) "></path>
                    </g>
                    <g id="Pen-Holder" filter="url(#filter-2)" transform="translate(34.477111, 215.000000)">
                        <ellipse id="Oval-5" fill="#180B0A" cx="95.3766234" cy="60.3130435" rx="40.6233766" ry="40.8"></ellipse>
                        <ellipse id="Oval-5" fill="#FFFFFF" opacity="0.1" cx="95.3766234" cy="60.3130435" rx="20.1558442" ry="20.2434783"></ellipse>
                        <g id="Group-5" transform="translate(75.759664, 45.856789) rotate(310.000000) translate(-75.759664, -45.856789) translate(71.759664, -19.643211)">
                            <rect id="Rectangle-186" fill="#8EC7D9" x="3.37507799e-14" y="9.9475983e-14" width="7.94805195" height="130.382609" rx="2"></rect>
                            <rect id="Rectangle-187" fill="#F0E884" x="3.37507799e-14" y="9.59232693e-14" width="7.94805195" height="12.4173913" rx="2"></rect>
                        </g>
                        <g id="Group-5" transform="translate(65.847742, 68.424703) rotate(623.000000) translate(-65.847742, -68.424703) translate(63.347742, 2.924703)">
                            <rect id="Rectangle-186" fill="#D9D9D9" x="0.441558442" y="5.68434189e-14" width="3.97402597" height="130.382609" rx="1.98701299"></rect>
                            <rect id="Rectangle-186" fill="#180B0A" x="0.441558442" y="-8.8817842e-15" width="3.97402597" height="22.173913" rx="1.98701299"></rect>
                        </g>
                    </g>
                    <g id="Notebook" transform="translate(0.477111, 0.000000)">
                        <g id="illus_notebook-copy" filter="url(#filter-3)" transform="translate(0.000000, 0.807018)">
                            <use id="Rectangle-232" stroke="#4ABCE2" mask="url(#mask-5)" stroke-width="6" fill="#FFFFFF" xlink:href="#path-4"></use>
                            <rect id="Rectangle-222" fill="#49BCE2" x="3.22222222" y="63.754386" width="109.555556" height="70.2105263"></rect>
                            <rect id="Rectangle-222" fill="#90DAFA" x="3.22222222" y="0" width="109.555556" height="70.2105263"></rect>
                            <rect id="Rectangle-224" fill="#353C44" x="0" y="10.4912281" width="9.66666667" height="4.84210526" rx="2"></rect>
                            <rect id="Rectangle-224" fill="#353C44" x="0" y="24.2105263" width="9.66666667" height="4.84210526" rx="2"></rect>
                            <rect id="Rectangle-224" fill="#353C44" x="0" y="40.3508772" width="9.66666667" height="4.84210526" rx="2"></rect>
                            <rect id="Rectangle-224" fill="#353C44" x="0" y="56.4912281" width="9.66666667" height="4.84210526" rx="2"></rect>
                            <rect id="Rectangle-224" fill="#353C44" x="0" y="72.6315789" width="9.66666667" height="4.84210526" rx="2"></rect>
                            <rect id="Rectangle-224" fill="#353C44" x="0" y="88.7719298" width="9.66666667" height="4.84210526" rx="2"></rect>
                            <rect id="Rectangle-224" fill="#353C44" x="0" y="104.912281" width="9.66666667" height="4.84210526" rx="2"></rect>
                            <rect id="Rectangle-224" fill="#353C44" x="0" y="121.052632" width="9.66666667" height="4.84210526" rx="2"></rect>
                        </g>
                        <polygon id="Rectangle-233-Copy" fill="#353C44" points="85.3888889 0 96.6666667 0 96.6666667 103.298246 90.7571615 95.2280702 85.3888889 103.298246"></polygon>
                    </g>
                </g>
            </g>
        </g>
    </g>
</svg>