<?xml version="1.0" encoding="UTF-8" standalone="no"?>
<svg width="270px" height="361px" viewBox="0 0 270 361" version="1.1" xmlns="http://www.w3.org/2000/svg" xmlns:xlink="http://www.w3.org/1999/xlink">
    <!-- Generator: Sketch 3.8.3 (29802) - http://www.bohemiancoding.com/sketch -->
    <title>Group 11</title>
    <desc>Created with Sketch.</desc>
    <defs>
        <filter x="-50%" y="-50%" width="200%" height="200%" filterUnits="objectBoundingBox" id="filter-1">
            <feOffset dx="-6" dy="-6" in="SourceAlpha" result="shadowOffsetOuter1"></feOffset>
            <feColorMatrix values="0 0 0 0 0   0 0 0 0 0   0 0 0 0 0  0 0 0 0.05 0" type="matrix" in="shadowOffsetOuter1" result="shadowMatrixOuter1"></feColorMatrix>
            <feMerge>
                <feMergeNode in="shadowMatrixOuter1"></feMergeNode>
                <feMergeNode in="SourceGraphic"></feMergeNode>
            </feMerge>
        </filter>
        <rect id="path-2" x="10.7412796" y="17.5715859" width="153.958341" height="83.4650329"></rect>
        <mask id="mask-3" maskContentUnits="userSpaceOnUse" maskUnits="objectBoundingBox" x="0" y="0" width="153.958341" height="83.4650329" fill="white">
            <use xlink:href="#path-2"></use>
        </mask>
        <filter x="-50%" y="-50%" width="200%" height="200%" filterUnits="objectBoundingBox" id="filter-4">
            <feOffset dx="-6" dy="-6" in="SourceAlpha" result="shadowOffsetOuter1"></feOffset>
            <feColorMatrix values="0 0 0 0 0   0 0 0 0 0   0 0 0 0 0  0 0 0 0.05 0" type="matrix" in="shadowOffsetOuter1" result="shadowMatrixOuter1"></feColorMatrix>
            <feMerge>
                <feMergeNode in="shadowMatrixOuter1"></feMergeNode>
                <feMergeNode in="SourceGraphic"></feMergeNode>
            </feMerge>
        </filter>
        <rect id="path-5" x="10.7723524" y="17.5263" width="154.403717" height="83.2499249"></rect>
        <mask id="mask-6" maskContentUnits="userSpaceOnUse" maskUnits="objectBoundingBox" x="0" y="0" width="154.403717" height="83.2499249" fill="white">
            <use xlink:href="#path-5"></use>
        </mask>
        <filter x="-50%" y="-50%" width="200%" height="200%" filterUnits="objectBoundingBox" id="filter-7">
            <feOffset dx="-6" dy="-6" in="SourceAlpha" result="shadowOffsetOuter1"></feOffset>
            <feColorMatrix values="0 0 0 0 0   0 0 0 0 0   0 0 0 0 0  0 0 0 0.100000001 0" type="matrix" in="shadowOffsetOuter1" result="shadowMatrixOuter1"></feColorMatrix>
            <feMerge>
                <feMergeNode in="shadowMatrixOuter1"></feMergeNode>
                <feMergeNode in="SourceGraphic"></feMergeNode>
            </feMerge>
        </filter>
        <filter x="-50%" y="-50%" width="200%" height="200%" filterUnits="objectBoundingBox" id="filter-8">
            <feOffset dx="-6" dy="-6" in="SourceAlpha" result="shadowOffsetOuter1"></feOffset>
            <feColorMatrix values="0 0 0 0 0   0 0 0 0 0   0 0 0 0 0  0 0 0 0.100000001 0" type="matrix" in="shadowOffsetOuter1" result="shadowMatrixOuter1"></feColorMatrix>
            <feMerge>
                <feMergeNode in="shadowMatrixOuter1"></feMergeNode>
                <feMergeNode in="SourceGraphic"></feMergeNode>
            </feMerge>
        </filter>
    </defs>
    <g id="design" stroke="none" stroke-width="1" fill="none" fill-rule="evenodd">
        <g id="Final_yi-career-design" transform="translate(-737.000000, -412.000000)">
            <g id="Group-6" transform="translate(36.000000, 418.000000)">
                <g id="Group-11" transform="translate(707.000000, 0.000000)">
                    <g id="Wireframe" transform="translate(2.000000, 0.000000)">
                        <g id="illus_wireframe-copy" filter="url(#filter-1)" transform="translate(122.365904, 134.726091) rotate(21.000000) translate(-122.365904, -134.726091) translate(33.865904, 24.726091)">
                            <rect id="Rectangle-196" fill="#FFFFFF" x="-3.55271368e-13" y="-6.8567374e-13" width="176.336007" height="219.644823" rx="2"></rect>
                            <use id="Rectangle-197" stroke="#CCD4D6" mask="url(#mask-3)" stroke-width="4" xlink:href="#path-2"></use>
                            <polygon id="Path-3" fill="#CCD4D6" points="22.2203229 100.744903 55.6727124 66.1530233 78.1718873 88.2367712 121.556972 45.6527527 164.436539 87.7405867 164.436539 100.557564"></polygon>
                            <ellipse id="Oval-6" fill="#CCD4D6" cx="35.3567121" cy="37.33962" rx="10.2937263" ry="10.1036619"></ellipse>
                            <rect id="Rectangle-198" fill="#CCD4D6" x="10.7412796" y="107.186674" width="128.000249" height="4.39289647"></rect>
                            <rect id="Rectangle-198" fill="#CCD4D6" x="10.7412796" y="115.972467" width="82.3498105" height="6.15005506"></rect>
                            <g id="Group-7" transform="translate(10.741280, 142.329846)" fill="#CCD4D6">
                                <rect id="Rectangle-198" x="0" y="0" width="41.1749052" height="6.15005506"></rect>
                                <rect id="Rectangle-198" x="-2.55795385e-13" y="8.78579294" width="41.1749052" height="2.63573788"></rect>
                                <rect id="Rectangle-198" x="3.12638804e-13" y="12.3001101" width="26.8531991" height="2.63573788"></rect>
                            </g>
                            <g id="Group-7" transform="translate(73.398744, 142.329846)" fill="#CCD4D6">
                                <rect id="Rectangle-198" x="0" y="0" width="41.1749052" height="6.15005506"></rect>
                                <rect id="Rectangle-198" x="-2.84217094e-13" y="8.78579294" width="35.8042654" height="2.63573788"></rect>
                                <rect id="Rectangle-198" x="2.84217094e-13" y="12.3001101" width="41.1749052" height="2.63573788"></rect>
                            </g>
                            <g id="Group-7" transform="translate(126.210036, 142.329846)" fill="#CCD4D6">
                                <rect id="Rectangle-198" x="0" y="0" width="41.1749052" height="6.15005506"></rect>
                                <rect id="Rectangle-198" x="-2.55795385e-13" y="8.78579294" width="41.1749052" height="2.63573788"></rect>
                                <rect id="Rectangle-198" x="-5.40012479e-13" y="12.3001101" width="26.8531991" height="2.63573788"></rect>
                            </g>
                        </g>
                        <g id="illus_wireframe-copy-2" filter="url(#filter-4)" transform="translate(132.510256, 164.538837) rotate(28.000000) translate(-132.510256, -164.538837) translate(44.010256, 54.538837)">
                            <rect id="Rectangle-196" fill="#FFFFFF" x="2.14583906e-12" y="-3.45679041e-12" width="176.846118" height="219.07875" rx="2"></rect>
                            <use id="Rectangle-197" stroke="#CCD4D6" mask="url(#mask-6)" stroke-width="4" xlink:href="#path-5"></use>
                            <polygon id="Path-3" fill="#CCD4D6" points="22.2846027 100.485261 55.8337644 65.9825322 78.3980257 88.0093654 121.908617 45.5350954 164.912227 87.5144597 164.912227 100.298405"></polygon>
                            <ellipse id="Oval-6" fill="#CCD4D6" cx="35.4589932" cy="37.2433875" rx="10.3235044" ry="10.0776225"></ellipse>
                            <rect id="Rectangle-198" fill="#CCD4D6" x="10.7723524" y="106.91043" width="128.370532" height="4.381575"></rect>
                            <rect id="Rectangle-198" fill="#CCD4D6" x="10.7723524" y="115.67358" width="82.5880349" height="6.13420499"></rect>
                            <g id="Group-7" transform="translate(10.772352, 141.963030)" fill="#CCD4D6">
                                <rect id="Rectangle-198" x="0" y="0" width="41.2940174" height="6.13420499"></rect>
                                <rect id="Rectangle-198" x="4.54747351e-13" y="8.76314999" width="41.2940174" height="2.628945"></rect>
                                <rect id="Rectangle-198" x="1.98951966e-13" y="12.26841" width="26.9308809" height="2.628945"></rect>
                            </g>
                            <g id="Group-7" transform="translate(73.611075, 141.963030)" fill="#CCD4D6">
                                <rect id="Rectangle-198" x="0" y="0" width="41.2940174" height="6.13420499"></rect>
                                <rect id="Rectangle-198" x="4.54747351e-13" y="8.76314999" width="35.9078413" height="2.628945"></rect>
                                <rect id="Rectangle-198" x="5.68434189e-14" y="12.26841" width="41.2940174" height="2.628945"></rect>
                            </g>
                            <g id="Group-7" transform="translate(126.575140, 141.963030)" fill="#CCD4D6">
                                <rect id="Rectangle-198" x="0" y="0" width="41.2940174" height="6.13420499"></rect>
                                <rect id="Rectangle-198" x="-3.41060513e-13" y="8.76314999" width="41.2940174" height="2.628945"></rect>
                                <rect id="Rectangle-198" x="5.68434189e-14" y="12.26841" width="26.9308809" height="2.628945"></rect>
                            </g>
                        </g>
                    </g>
                    <g id="Phone" filter="url(#filter-7)" transform="translate(0.477111, 210.000000)">
                        <rect id="Rectangle-234" fill="#353C44" x="0" y="0" width="79" height="145" rx="4"></rect>
                        <circle id="Oval-9" fill="#FFFFFF" cx="40" cy="136" r="3"></circle>
                        <rect id="Rectangle-234" fill="#FFFFFF" opacity="0.2" x="3" y="8" width="74" height="121" rx="2"></rect>
                    </g>
                    <g id="Earphone" filter="url(#filter-8)" transform="translate(69.477111, 197.000000)">
                        <g id="Group" transform="translate(0.000000, 14.000000)" fill="#353C44">
                            <g id="Group-9">
                                <g id="Group-3">
                                    <path d="M24,3.49029558 C22.5380274,1.38298241 20.079954,0 17.2941176,0 C15.2713261,0 13.4213375,0.729134591 12,1.93526342 L12,14.0647366 C13.4213375,15.2708654 15.2713261,16 17.2941176,16 C20.079954,16 22.5380274,14.6170176 24,12.5097044 L24,3.49029558 Z" id="Combined-Shape"></path>
                                    <path d="M0,5.99582624 C0,3.78899235 1.79182182,2 4.00236948,2 L11,2 L11,14 L4.00236948,14 C1.79192185,14 0,12.2034788 0,10.0041738 L0,5.99582624 Z" id="Rectangle-364"></path>
                                </g>
                                <polygon id="Rectangle-368" points="2 11 8 11 6 25 2 25"></polygon>
                            </g>
                        </g>
                        <g id="Group" transform="translate(143.000000, 12.500000) scale(-1, 1) translate(-143.000000, -12.500000) translate(131.000000, 0.000000)" fill="#353C44">
                            <g id="Group-9">
                                <g id="Group-3">
                                    <path d="M24,3.49029558 C22.5380274,1.38298241 20.079954,0 17.2941176,0 C15.2713261,0 13.4213375,0.729134591 12,1.93526342 L12,14.0647366 C13.4213375,15.2708654 15.2713261,16 17.2941176,16 C20.079954,16 22.5380274,14.6170176 24,12.5097044 L24,3.49029558 Z" id="Combined-Shape"></path>
                                    <path d="M0,5.99582624 C0,3.78899235 1.79182182,2 4.00236948,2 L11,2 L11,14 L4.00236948,14 C1.79192185,14 0,12.2034788 0,10.0041738 L0,5.99582624 Z" id="Rectangle-364"></path>
                                </g>
                                <polygon id="Rectangle-368" points="2 11 8 11 6 25 2 25"></polygon>
                            </g>
                        </g>
                        <path d="M3.7890625,34.5742942 C3.7890625,34.5742942 1.42913607,35.5947696 11,49.8478666 C20.5708639,64.1009636 21.4218753,70.1355951 21.421875,80.2005918 C21.4218747,90.2655886 24.3832546,146.995915 97.5273453,73.1719943 C108.277347,62.322078 146.42578,56.2192349 151.636719,22.4414062" id="Path-9" stroke="#353C44" stroke-width="2"></path>
                        <rect id="Rectangle-370" fill="#353C44" transform="translate(126.500000, 54.500000) rotate(55.000000) translate(-126.500000, -54.500000) " x="124" y="36" width="5" height="37" rx="2"></rect>
                    </g>
                </g>
            </g>
        </g>
    </g>
</svg>