<?xml version="1.0" encoding="UTF-8" standalone="no"?>
<svg width="140px" height="140px" viewBox="0 0 140 140" version="1.1" xmlns="http://www.w3.org/2000/svg" xmlns:xlink="http://www.w3.org/1999/xlink">
    <!-- Generator: Sketch 3.8.3 (29802) - http://www.bohemiancoding.com/sketch -->
    <title>Group 2</title>
    <desc>Created with Sketch.</desc>
    <defs></defs>
    <g id="job-detail" stroke="none" stroke-width="1" fill="none" fill-rule="evenodd">
        <g id="yi-job-detail-design-copy" transform="translate(-202.000000, -3251.000000)" fill="#9B9B9B">
            <g id="Group-2" transform="translate(202.000000, 3251.000000)">
                <path d="M70,135 L70,135 C105.898509,135 135,105.898509 135,70 C135,34.1014913 105.898509,5 70,5 C34.1014913,5 5,34.1014913 5,70 C5,105.898509 34.1014913,135 70,135 L70,135 Z M70,140 L70,140 C31.3400675,140 0,108.659932 0,70 C0,31.3400675 31.3400675,0 70,0 C108.659932,0 140,31.3400675 140,70 C140,108.659932 108.659932,140 70,140 L70,140 Z" id="Oval-4-Copy"></path>
                <path d="M92.5757772,71.3983161 L92.5757772,50.9740933 L79.4734456,50.9740933 L79.4734456,71.3983161 L59.0492228,71.3983161 L59.0492228,84.5006477 L79.4734456,84.5006477 L79.4734456,104.92487 L92.5757772,104.92487 L92.5757772,84.5006477 L113,84.5006477 L113,71.3983161 L92.5757772,71.3983161 Z M54.8102332,51.5796632 L54.8102332,36 L43.5796632,36 L43.5796632,51.5796632 L28,51.5796632 L28,62.8102332 L43.5796632,62.8102332 L43.5796632,78.3898964 L54.8102332,78.3898964 L54.8102332,62.8102332 L70.3898964,62.8102332 L70.3898964,51.5796632 L54.8102332,51.5796632 Z" id="Combined-Shape"></path>
            </g>
        </g>
    </g>
</svg>