<?xml version="1.0" encoding="UTF-8" standalone="no"?>
<svg width="140px" height="140px" viewBox="0 0 140 140" version="1.1" xmlns="http://www.w3.org/2000/svg" xmlns:xlink="http://www.w3.org/1999/xlink">
    <!-- Generator: Sketch 3.8.3 (29802) - http://www.bohemiancoding.com/sketch -->
    <title>Group</title>
    <desc>Created with Sketch.</desc>
    <defs></defs>
    <g id="job-detail" stroke="none" stroke-width="1" fill="none" fill-rule="evenodd">
        <g id="yi-job-detail-design-copy" transform="translate(-202.000000, -2360.000000)" fill="#AAAAAA">
            <g id="Group" transform="translate(202.000000, 2360.000000)">
                <path d="M99.2409793,83.0740818 L99.2409793,35 L40.7747582,35 L40.7747582,83.0869789 L40.8086502,83.0869789 L35,105 L105,105 L99.2409793,83.0740818 Z M45.1597247,39.3715435 L94.8560127,39.3715435 L94.8560127,78.7154353 L45.1597247,78.7154353 L45.1597247,39.3715435 Z M51.1001983,48.1146306 L89.0669326,48.1146306 L89.0669326,52.4861741 L51.1001983,52.4861741 L51.1001983,48.1146306 Z M51.1001983,56.8577177 L80.9312038,56.8577177 L80.9312038,61.2292612 L51.1001983,61.2292612 L51.1001983,56.8577177 Z M51.1001983,65.6008047 L70.0835654,65.6008047 L70.0835654,69.9723483 L51.1001983,69.9723483 L51.1001983,65.6008047 Z M44.9327413,85.6002069 L40.9613921,99.4869458 L99.2821171,99.4869458 L95.1192212,85.6002069 L44.9327413,85.6002069 Z M48.0830358,87.4585224 L51.0063469,87.4585224 L51.0063469,88.9157036 L48.0830358,88.9157036 L48.0830358,87.4585224 Z M45.1597247,91.8300659 L48.0830358,91.8300659 L48.0830358,93.2872471 L45.1597247,93.2872471 L45.1597247,91.8300659 Z M45.1597247,96.2016095 L48.0830358,96.2016095 L48.0830358,97.6587906 L45.1597247,97.6587906 L45.1597247,96.2016095 Z M59.77628,87.4585224 L62.6995911,87.4585224 L62.6995911,88.9157036 L59.77628,88.9157036 L59.77628,87.4585224 Z M56.852969,91.8300659 L59.77628,91.8300659 L59.77628,93.2872471 L56.852969,93.2872471 L56.852969,91.8300659 Z M56.852969,96.2016095 L59.77628,96.2016095 L59.77628,97.6587906 L56.852969,97.6587906 L56.852969,96.2016095 Z M71.4695243,87.4585224 L74.3928353,87.4585224 L74.3928353,88.9157036 L71.4695243,88.9157036 L71.4695243,87.4585224 Z M68.5462132,91.8300659 L71.4695243,91.8300659 L71.4695243,93.2872471 L68.5462132,93.2872471 L68.5462132,91.8300659 Z M83.1627685,87.4585224 L86.0860796,87.4585224 L86.0860796,88.9157036 L83.1627685,88.9157036 L83.1627685,87.4585224 Z M80.2394575,91.8300659 L83.1627685,91.8300659 L83.1627685,93.2872471 L80.2394575,93.2872471 L80.2394575,91.8300659 Z M80.2394575,96.2016095 L83.1627685,96.2016095 L83.1627685,97.6587906 L80.2394575,97.6587906 L80.2394575,96.2016095 Z M53.9296579,87.4585224 L56.852969,87.4585224 L56.852969,88.9157036 L53.9296579,88.9157036 L53.9296579,87.4585224 Z M51.0063469,91.8300659 L53.9296579,91.8300659 L53.9296579,93.2872471 L51.0063469,93.2872471 L51.0063469,91.8300659 Z M51.0063469,96.2016095 L53.9296579,96.2016095 L53.9296579,97.6587906 L51.0063469,97.6587906 L51.0063469,96.2016095 Z M65.6229022,87.4585224 L68.5462132,87.4585224 L68.5462132,88.9157036 L65.6229022,88.9157036 L65.6229022,87.4585224 Z M62.6995911,91.8300659 L65.6229022,91.8300659 L65.6229022,93.2872471 L62.6995911,93.2872471 L62.6995911,91.8300659 Z M62.6995911,96.2016095 L77.3161464,96.2016095 L77.3161464,97.6587906 L62.6995911,97.6587906 L62.6995911,96.2016095 Z M77.3161464,87.4585224 L80.2394575,87.4585224 L80.2394575,88.9157036 L77.3161464,88.9157036 L77.3161464,87.4585224 Z M74.3928353,91.8300659 L77.3161464,91.8300659 L77.3161464,93.2872471 L74.3928353,93.2872471 L74.3928353,91.8300659 Z M89.0093906,87.4585224 L91.9327017,87.4585224 L91.9327017,88.9157036 L89.0093906,88.9157036 L89.0093906,87.4585224 Z M86.0860796,91.8300659 L89.0093906,91.8300659 L89.0093906,93.2872471 L86.0860796,93.2872471 L86.0860796,91.8300659 Z M86.0860796,96.2016095 L89.0093906,96.2016095 L89.0093906,97.6587906 L86.0860796,97.6587906 L86.0860796,96.2016095 Z M91.9327017,91.8300659 L94.8560127,91.8300659 L94.8560127,93.2872471 L91.9327017,93.2872471 L91.9327017,91.8300659 Z M91.9327017,96.2016095 L94.8560127,96.2016095 L94.8560127,97.6587906 L91.9327017,97.6587906 L91.9327017,96.2016095 Z" id="Combined-Shape"></path>
                <path d="M70,135 L70,135 C105.898509,135 135,105.898509 135,70 C135,34.1014913 105.898509,5 70,5 C34.1014913,5 5,34.1014913 5,70 C5,105.898509 34.1014913,135 70,135 L70,135 Z M70,140 L70,140 C31.3400675,140 0,108.659932 0,70 C0,31.3400675 31.3400675,0 70,0 C108.659932,0 140,31.3400675 140,70 C140,108.659932 108.659932,140 70,140 L70,140 Z" id="Oval-4"></path>
            </g>
        </g>
    </g>
</svg>