<?xml version="1.0" encoding="UTF-8" standalone="no"?>
<svg width="164px" height="104px" viewBox="0 0 164 104" version="1.1" xmlns="http://www.w3.org/2000/svg" xmlns:xlink="http://www.w3.org/1999/xlink">
    <!-- Generator: sketchtool 3.8.3 (29802) - http://www.bohemiancoding.com/sketch -->
    <title>404F3119-5153-4747-9366-1AA875D5FD89</title>
    <desc>Created with sketchtool.</desc>
    <defs>
        <path d="M15.0296171,29 C25.9536568,29 30,26.5142857 30,26.5142857 C30,18.2773532 23.2842712,11.6 15,11.6 C6.71572875,11.6 0,18.2773532 0,26.5142857 C0,26.5142857 4.10557744,29 15.0296171,29 Z" id="path-1"></path>
        <mask id="mask-2" maskContentUnits="userSpaceOnUse" maskUnits="objectBoundingBox" x="-2" y="-2" width="34" height="21.4">
            <rect x="-2" y="9.6" width="34" height="21.4" fill="white"></rect>
            <use xlink:href="#path-1" fill="black"></use>
        </mask>
        <ellipse id="path-3" cx="15" cy="8.28571429" rx="8.33333333" ry="8.28571429"></ellipse>
        <mask id="mask-4" maskContentUnits="userSpaceOnUse" maskUnits="objectBoundingBox" x="-2" y="-2" width="20.6666667" height="20.5714286">
            <rect x="4.66666667" y="-2" width="20.6666667" height="20.5714286" fill="white"></rect>
            <use xlink:href="#path-3" fill="black"></use>
        </mask>
        <path d="M15.0296171,29 C25.9536568,29 30,26.5142857 30,26.5142857 C30,18.2773532 23.2842712,11.6 15,11.6 C6.71572875,11.6 0,18.2773532 0,26.5142857 C0,26.5142857 4.10557744,29 15.0296171,29 Z" id="path-5"></path>
        <mask id="mask-6" maskContentUnits="userSpaceOnUse" maskUnits="objectBoundingBox" x="-2" y="-2" width="34" height="21.4">
            <rect x="-2" y="9.6" width="34" height="21.4" fill="white"></rect>
            <use xlink:href="#path-5" fill="black"></use>
        </mask>
        <ellipse id="path-7" cx="15" cy="8.28571429" rx="8.33333333" ry="8.28571429"></ellipse>
        <mask id="mask-8" maskContentUnits="userSpaceOnUse" maskUnits="objectBoundingBox" x="-2" y="-2" width="20.6666667" height="20.5714286">
            <rect x="4.66666667" y="-2" width="20.6666667" height="20.5714286" fill="white"></rect>
            <use xlink:href="#path-7" fill="black"></use>
        </mask>
        <path d="M18.0355406,35 C31.1443882,35 36,32 36,32 C36,22.0588745 27.9411255,14 18,14 C8.0588745,14 0,22.0588745 0,32 C0,32 4.92669293,35 18.0355406,35 Z" id="path-9"></path>
        <mask id="mask-10" maskContentUnits="userSpaceOnUse" maskUnits="objectBoundingBox" x="-2" y="-2" width="40" height="25">
            <rect x="-2" y="12" width="40" height="25" fill="white"></rect>
            <use xlink:href="#path-9" fill="black"></use>
        </mask>
        <circle id="path-11" cx="18" cy="10" r="10"></circle>
        <mask id="mask-12" maskContentUnits="userSpaceOnUse" maskUnits="objectBoundingBox" x="-2" y="-2" width="24" height="24">
            <rect x="6" y="-2" width="24" height="24" fill="white"></rect>
            <use xlink:href="#path-11" fill="black"></use>
        </mask>
        <path d="M18.0355406,35 C31.1443882,35 36,32 36,32 C36,22.0588745 27.9411255,14 18,14 C8.0588745,14 0,22.0588745 0,32 C0,32 4.92669293,35 18.0355406,35 Z" id="path-13"></path>
        <mask id="mask-14" maskContentUnits="userSpaceOnUse" maskUnits="objectBoundingBox" x="-2" y="-2" width="40" height="25">
            <rect x="-2" y="12" width="40" height="25" fill="white"></rect>
            <use xlink:href="#path-13" fill="black"></use>
        </mask>
        <circle id="path-15" cx="18" cy="10" r="10"></circle>
        <mask id="mask-16" maskContentUnits="userSpaceOnUse" maskUnits="objectBoundingBox" x="-2" y="-2" width="24" height="24">
            <rect x="6" y="-2" width="24" height="24" fill="white"></rect>
            <use xlink:href="#path-15" fill="black"></use>
        </mask>
        <path d="M18.0355406,35 C31.1443882,35 36,32 36,32 C36,22.0588745 27.9411255,14 18,14 C8.0588745,14 0,22.0588745 0,32 C0,32 4.92669293,35 18.0355406,35 Z" id="path-17"></path>
        <mask id="mask-18" maskContentUnits="userSpaceOnUse" maskUnits="objectBoundingBox" x="-2" y="-2" width="40" height="25">
            <rect x="-2" y="12" width="40" height="25" fill="white"></rect>
            <use xlink:href="#path-17" fill="black"></use>
        </mask>
        <circle id="path-19" cx="18" cy="10" r="10"></circle>
        <mask id="mask-20" maskContentUnits="userSpaceOnUse" maskUnits="objectBoundingBox" x="-2" y="-2" width="24" height="24">
            <rect x="6" y="-2" width="24" height="24" fill="white"></rect>
            <use xlink:href="#path-19" fill="black"></use>
        </mask>
        <path d="M18.0355406,35 C31.1443882,35 36,32 36,32 C36,22.0588745 27.9411255,14 18,14 C8.0588745,14 0,22.0588745 0,32 C0,32 4.92669293,35 18.0355406,35 Z" id="path-21"></path>
        <mask id="mask-22" maskContentUnits="userSpaceOnUse" maskUnits="objectBoundingBox" x="-2" y="-2" width="40" height="25">
            <rect x="-2" y="12" width="40" height="25" fill="white"></rect>
            <use xlink:href="#path-21" fill="black"></use>
        </mask>
        <circle id="path-23" cx="18" cy="10" r="10"></circle>
        <mask id="mask-24" maskContentUnits="userSpaceOnUse" maskUnits="objectBoundingBox" x="-2" y="-2" width="24" height="24">
            <rect x="6" y="-2" width="24" height="24" fill="white"></rect>
            <use xlink:href="#path-23" fill="black"></use>
        </mask>
        <path d="M18.0355406,35 C31.1443882,35 36,32 36,32 C36,22.0588745 27.9411255,14 18,14 C8.0588745,14 0,22.0588745 0,32 C0,32 4.92669293,35 18.0355406,35 Z" id="path-25"></path>
        <mask id="mask-26" maskContentUnits="userSpaceOnUse" maskUnits="objectBoundingBox" x="-2" y="-2" width="40" height="25">
            <rect x="-2" y="12" width="40" height="25" fill="white"></rect>
            <use xlink:href="#path-25" fill="black"></use>
        </mask>
        <circle id="path-27" cx="18" cy="10" r="10"></circle>
        <mask id="mask-28" maskContentUnits="userSpaceOnUse" maskUnits="objectBoundingBox" x="-2" y="-2" width="24" height="24">
            <rect x="6" y="-2" width="24" height="24" fill="white"></rect>
            <use xlink:href="#path-27" fill="black"></use>
        </mask>
        <path d="M18.0355406,34 C31.1443882,34 36,31.0857143 36,31.0857143 C36,21.4286209 27.9411255,13.6 18,13.6 C8.0588745,13.6 0,21.4286209 0,31.0857143 C0,31.0857143 4.92669293,34 18.0355406,34 Z" id="path-29"></path>
        <mask id="mask-30" maskContentUnits="userSpaceOnUse" maskUnits="objectBoundingBox" x="-2" y="-2" width="40" height="24.4">
            <rect x="-2" y="11.6" width="40" height="24.4" fill="white"></rect>
            <use xlink:href="#path-29" fill="black"></use>
        </mask>
        <ellipse id="path-31" cx="18" cy="9.71428571" rx="10" ry="9.71428571"></ellipse>
        <mask id="mask-32" maskContentUnits="userSpaceOnUse" maskUnits="objectBoundingBox" x="-2" y="-2" width="24" height="23.4285714">
            <rect x="6" y="-2" width="24" height="23.4285714" fill="white"></rect>
            <use xlink:href="#path-31" fill="black"></use>
        </mask>
    </defs>
    <g id="Our-Story---About" stroke="none" stroke-width="1" fill="none" fill-rule="evenodd">
        <g id="Our-Story--About" transform="translate(-662.000000, -1533.000000)">
            <g id="ic_community_innovations" transform="translate(664.000000, 1535.000000)">
                <g id="Group-2-Copy-4" transform="translate(130.000000, 0.000000)">
                    <g id="Oval-174-Copy">
                        <use fill="#FF8A8A" fill-rule="evenodd" xlink:href="#path-1"></use>
                        <use stroke="#FFFFFF" mask="url(#mask-2)" stroke-width="4" xlink:href="#path-1"></use>
                    </g>
                    <g id="Oval-174">
                        <use fill="#FF8A8A" fill-rule="evenodd" xlink:href="#path-3"></use>
                        <use stroke="#FFFFFF" mask="url(#mask-4)" stroke-width="4" xlink:href="#path-3"></use>
                    </g>
                </g>
                <g id="Group-2-Copy" transform="translate(122.000000, 29.000000)">
                    <g id="Oval-174-Copy">
                        <use fill="#FF8A8A" fill-rule="evenodd" xlink:href="#path-5"></use>
                        <use stroke="#FFFFFF" mask="url(#mask-6)" stroke-width="4" xlink:href="#path-5"></use>
                    </g>
                    <g id="Oval-174">
                        <use fill="#FF8A8A" fill-rule="evenodd" xlink:href="#path-7"></use>
                        <use stroke="#FFFFFF" mask="url(#mask-8)" stroke-width="4" xlink:href="#path-7"></use>
                    </g>
                </g>
                <g id="Group-2-Copy" transform="translate(65.000000, 22.000000)">
                    <g id="Oval-174-Copy">
                        <use fill="#FF8A8A" fill-rule="evenodd" xlink:href="#path-9"></use>
                        <use stroke="#FFFFFF" mask="url(#mask-10)" stroke-width="4" xlink:href="#path-9"></use>
                    </g>
                    <g id="Oval-174">
                        <use fill="#FF8A8A" fill-rule="evenodd" xlink:href="#path-11"></use>
                        <use stroke="#FFFFFF" mask="url(#mask-12)" stroke-width="4" xlink:href="#path-11"></use>
                    </g>
                </g>
                <g id="Group-2-Copy" transform="translate(93.000000, 38.000000)">
                    <g id="Oval-174-Copy">
                        <use fill="#FF8A8A" fill-rule="evenodd" xlink:href="#path-13"></use>
                        <use stroke="#FFFFFF" mask="url(#mask-14)" stroke-width="4" xlink:href="#path-13"></use>
                    </g>
                    <g id="Oval-174">
                        <use fill="#FF8A8A" fill-rule="evenodd" xlink:href="#path-15"></use>
                        <use stroke="#FFFFFF" mask="url(#mask-16)" stroke-width="4" xlink:href="#path-15"></use>
                    </g>
                </g>
                <g id="Group-2-Copy" transform="translate(38.000000, 38.000000)">
                    <g id="Oval-174-Copy">
                        <use fill="#FF8A8A" fill-rule="evenodd" xlink:href="#path-17"></use>
                        <use stroke="#FFFFFF" mask="url(#mask-18)" stroke-width="4" xlink:href="#path-17"></use>
                    </g>
                    <g id="Oval-174">
                        <use fill="#FF8A8A" fill-rule="evenodd" xlink:href="#path-19"></use>
                        <use stroke="#FFFFFF" mask="url(#mask-20)" stroke-width="4" xlink:href="#path-19"></use>
                    </g>
                </g>
                <g id="Group-2-Copy-2" transform="translate(0.000000, 31.000000)">
                    <g id="Oval-174-Copy">
                        <use fill="#FF8A8A" fill-rule="evenodd" xlink:href="#path-21"></use>
                        <use stroke="#FFFFFF" mask="url(#mask-22)" stroke-width="4" xlink:href="#path-21"></use>
                    </g>
                    <g id="Oval-174">
                        <use fill="#FF8A8A" fill-rule="evenodd" xlink:href="#path-23"></use>
                        <use stroke="#FFFFFF" mask="url(#mask-24)" stroke-width="4" xlink:href="#path-23"></use>
                    </g>
                </g>
                <g id="Group-2-Copy-3" transform="translate(14.000000, 65.000000)">
                    <g id="Oval-174-Copy">
                        <use fill="#FF8A8A" fill-rule="evenodd" xlink:href="#path-25"></use>
                        <use stroke="#FFFFFF" mask="url(#mask-26)" stroke-width="4" xlink:href="#path-25"></use>
                    </g>
                    <g id="Oval-174">
                        <use fill="#FF8A8A" fill-rule="evenodd" xlink:href="#path-27"></use>
                        <use stroke="#FFFFFF" mask="url(#mask-28)" stroke-width="4" xlink:href="#path-27"></use>
                    </g>
                </g>
                <g id="Group-2-Copy" transform="translate(65.000000, 58.000000)">
                    <g id="Oval-174-Copy">
                        <use fill="#FF8A8A" fill-rule="evenodd" xlink:href="#path-29"></use>
                        <use stroke="#FFFFFF" mask="url(#mask-30)" stroke-width="4" xlink:href="#path-29"></use>
                    </g>
                    <g id="Oval-174">
                        <use fill="#FF8A8A" fill-rule="evenodd" xlink:href="#path-31"></use>
                        <use stroke="#FFFFFF" mask="url(#mask-32)" stroke-width="4" xlink:href="#path-31"></use>
                    </g>
                </g>
            </g>
        </g>
    </g>
</svg>