<?xml version="1.0" encoding="UTF-8" standalone="no"?>
<svg width="160px" height="100px" viewBox="0 0 160 100" version="1.1" xmlns="http://www.w3.org/2000/svg" xmlns:xlink="http://www.w3.org/1999/xlink">
    <!-- Generator: sketchtool 3.8.3 (29802) - http://www.bohemiancoding.com/sketch -->
    <title>178B2004-41D5-4C19-8893-ED38866C12AA</title>
    <desc>Created with sketchtool.</desc>
    <defs></defs>
    <g id="Our-Story---About" stroke="none" stroke-width="1" fill="none" fill-rule="evenodd">
        <g id="Our-Story--About" transform="translate(-192.000000, -1533.000000)">
            <g id="ic_product_innovations" transform="translate(192.000000, 1533.000000)">
                <g id="Group">
                    <polygon id="Rectangle-40" fill="#E3D5CF" points="-9.9475983e-14 18.5625 -9.9475983e-14 79.40625 61 99 61 37.125"></polygon>
                    <polygon id="Rectangle-43" fill="#F88B58" points="22.0271337 86.4615141 37.1707881 91.3088399 37.1707881 29.6404213 22.0271337 24.9739657"></polygon>
                    <polygon id="Rectangle-42" fill="#F7E8E1" transform="translate(90.466102, 59.296875) scale(-1, 1) translate(-90.466102, -59.296875) " points="61 19.59375 61 79.40625 119.932203 99 119.932203 37.125"></polygon>
                    <polygon id="Rectangle-43" fill="#F88B58" transform="translate(92.139755, 58.141403) scale(-1, 1) translate(-92.139755, -58.141403) " points="84.5679278 86.4615141 99.7115822 91.3088399 99.7115822 29.6404213 84.5679278 24.9739657"></polygon>
                    <polygon id="Path-37" fill="#F7E8E1" points="62.0100702 37.3372925 1.03389831 18.7860718 62.2491592 0 121.029307 19.5776367"></polygon>
                    <polygon id="Rectangle-43" fill="#F88B58" transform="translate(62.411046, 19.479831) scale(-1, 1) rotate(-90.000000) translate(-62.411046, -19.479831) " points="74.4257618 42.7147295 55.3244427 -19.0185998 50.3963311 -3.32563937 69.5098546 57.978262"></polygon>
                    <polygon id="Rectangle-44" fill="#F88B58" transform="translate(60.445589, 18.759022) rotate(-90.000000) translate(-60.445589, -18.759022) " points="72.4120203 40.7775233 53.3090202 -18.5230126 48.4791571 -2.17094853 67.4961131 56.0410558"></polygon>
                </g>
                <g id="Group" transform="translate(98.000000, 50.000000)">
                    <polygon id="Rectangle-40" fill="#E3D5CF" points="-6.57252031e-14 9.375 -6.57252031e-14 40.1041667 31 50 31 18.75"></polygon>
                    <polygon id="Rectangle-43" fill="#F88B58" points="11.1941171 43.6674313 18.8900726 46.1155757 18.8900726 14.9699097 11.1941171 12.613114"></polygon>
                    <polygon id="Rectangle-42" fill="#F7E8E1" transform="translate(45.974576, 29.947917) scale(-1, 1) translate(-45.974576, -29.947917) " points="31 9.89583333 31 40.1041667 60.9491525 50 60.9491525 18.75"></polygon>
                    <polygon id="Rectangle-43" fill="#F88B58" transform="translate(46.825121, 29.364345) scale(-1, 1) translate(-46.825121, -29.364345) " points="42.9771437 43.6674313 50.6730992 46.1155757 50.6730992 14.9699097 42.9771437 12.613114"></polygon>
                    <polygon id="Path-37" fill="#F7E8E1" points="31.5133144 18.8572184 0.525423729 9.48791504 31.6348186 0 61.5066969 9.88769531"></polygon>
                    <polygon id="Rectangle-43" fill="#F88B58" transform="translate(31.717089, 9.838299) scale(-1, 1) rotate(-90.000000) translate(-31.717089, -9.838299) " points="37.8229281 21.5730957 28.1157004 -9.60535344 25.6112502 -1.67961584 35.3246802 29.2819505"></polygon>
                    <polygon id="Rectangle-44" fill="#F88B58" transform="translate(30.718250, 9.474253) rotate(-90.000000) translate(-30.718250, -9.474253) " points="36.7995513 20.5947087 27.0914693 -9.35505687 24.6369487 -1.09643865 34.3013034 28.3035635"></polygon>
                </g>
            </g>
        </g>
    </g>
</svg>