<?xml version="1.0" encoding="UTF-8" standalone="no"?>
<svg width="160px" height="104px" viewBox="0 0 160 104" version="1.1" xmlns="http://www.w3.org/2000/svg" xmlns:xlink="http://www.w3.org/1999/xlink">
    <!-- Generator: sketchtool 3.8.3 (29802) - http://www.bohemiancoding.com/sketch -->
    <title>7D917AD4-267A-438A-A039-4475D2490774</title>
    <desc>Created with sketchtool.</desc>
    <defs>
        <rect id="path-1" x="0" y="12" width="36" height="58" rx="4"></rect>
        <mask id="mask-2" maskContentUnits="userSpaceOnUse" maskUnits="objectBoundingBox" x="-4" y="-4" width="44" height="66">
            <rect x="-4" y="8" width="44" height="66" fill="white"></rect>
            <use xlink:href="#path-1" fill="black"></use>
        </mask>
        <rect id="path-3" x="15" y="0" width="51" height="82" rx="6"></rect>
        <mask id="mask-4" maskContentUnits="userSpaceOnUse" maskUnits="objectBoundingBox" x="-4" y="-4" width="59" height="90">
            <rect x="11" y="-4" width="59" height="90" fill="white"></rect>
            <use xlink:href="#path-3" fill="black"></use>
        </mask>
    </defs>
    <g id="Our-Story---About" stroke="none" stroke-width="1" fill="none" fill-rule="evenodd">
        <g id="Our-Story--About" transform="translate(-672.000000, -1175.000000)">
            <g id="ic_technology_innovations" transform="translate(672.000000, 1179.000000)">
                <g id="Rectangle-17-+-Rectangle-15-+-Rectangle-16" transform="translate(0.000000, 18.000000)">
                    <path d="M3.00060948,76 C1.34341862,76 0,77.3465171 0,79 L0,79 C0,80.6568542 1.33515149,82 3.00060948,82 L156.999391,82 C158.656581,82 160,80.6534829 160,79 L160,79 C160,77.3431458 158.664849,76 156.999391,76 L3.00060948,76 Z" id="Rectangle-17" fill="#7DB4F5"></path>
                    <g id="Rectangle-15-+-Rectangle-16" transform="translate(12.000000, 0.000000)">
                        <rect id="Rectangle-15" fill="#7DB4F5" x="0" y="0" width="136" height="74" rx="6"></rect>
                        <rect id="Rectangle-16" fill="#FFFFFF" x="6" y="7" width="124" height="61"></rect>
                    </g>
                </g>
                <g id="Group" transform="translate(48.000000, 0.000000)">
                    <g id="Rectangle-14">
                        <use fill="#7DB4F5" fill-rule="evenodd" xlink:href="#path-1"></use>
                        <use stroke="#FFFFFF" mask="url(#mask-2)" stroke-width="8" xlink:href="#path-1"></use>
                    </g>
                    <rect id="Rectangle-13" fill="#FFFFFF" x="3" y="19" width="33" height="46" rx="1"></rect>
                    <g id="Rectangle-9">
                        <use fill="#7DB4F5" fill-rule="evenodd" xlink:href="#path-3"></use>
                        <use stroke="#FFFFFF" mask="url(#mask-4)" stroke-width="8" xlink:href="#path-3"></use>
                    </g>
                    <circle id="Oval-22" fill="#FFFFFF" cx="40" cy="5" r="2"></circle>
                    <rect id="Rectangle-10" fill="#FFFFFF" x="18" y="9" width="45" height="65" rx="4"></rect>
                </g>
            </g>
        </g>
    </g>
</svg>